<?xml version="1.0" standalone="no"?>
<!DOCTYPE svg PUBLIC "-//W3C//DTD SVG 20010904//EN"
 "http://www.w3.org/TR/2001/REC-SVG-20010904/DTD/svg10.dtd">
<svg version="1.0" xmlns="http://www.w3.org/2000/svg"
 width="730.000000pt" height="726.000000pt" viewBox="0 0 730.000000 726.000000"
 preserveAspectRatio="xMidYMid meet">

<g transform="translate(0.000000,726.000000) scale(0.100000,-0.100000)"
fill="#000000" stroke="none">
<path d="M4611 5203 c-1 -38 23 -169 45 -238 63 -201 190 -322 373 -355 64
-11 98 -8 42 5 -22 5 -31 12 -31 26 0 10 -7 19 -15 19 -8 0 -18 14 -23 32 -6
24 -17 35 -42 44 -19 7 -27 13 -17 13 9 1 17 6 17 11 0 6 -8 10 -17 10 -15 0
-16 2 -3 10 8 5 10 10 4 10 -6 0 -16 11 -22 25 -6 14 -18 25 -27 25 -8 0 -15
7 -15 15 0 8 -7 15 -15 15 -8 0 -15 5 -15 10 0 6 -12 10 -27 11 -27 0 -27 1
-5 9 12 5 22 12 22 15 0 15 -25 51 -47 68 -12 10 -23 25 -23 32 0 8 -8 16 -17
20 -10 3 -31 17 -48 31 -26 22 -27 25 -7 19 28 -8 29 10 2 25 -11 6 -20 16
-20 22 0 6 -9 19 -21 29 -11 10 -18 22 -15 28 4 5 2 12 -4 16 -5 3 -11 -4 -11
-17 -1 -16 -4 -12 -9 12 l-7 35 -2 -32z m302 -450 c-7 -2 -19 -2 -25 0 -7 3
-2 5 12 5 14 0 19 -2 13 -5z"/>
<path d="M6255 4740 c-3 -5 -3 -14 0 -20 3 -5 -1 -10 -10 -10 -9 0 -14 -3 -12
-7 2 -5 -4 -16 -15 -25 -15 -16 -18 -16 -18 -2 0 8 -5 12 -11 9 -6 -4 -8 -13
-6 -19 4 -9 -7 -13 -31 -14 -20 -1 -44 -10 -57 -22 -12 -11 -34 -20 -49 -20
-40 0 -126 -32 -126 -47 0 -9 -17 -13 -52 -14 -29 0 -47 -3 -40 -6 24 -10 11
-19 -20 -15 -31 5 -32 4 -18 -13 14 -17 13 -18 -15 -12 -19 3 -52 -2 -88 -15
-70 -25 -64 -39 28 -62 114 -29 196 -17 294 40 66 39 174 142 164 157 -3 5 -1
7 4 4 13 -8 86 79 88 105 2 20 -1 23 -10 8z m-125 -120 c-8 -5 -19 -10 -25
-10 -5 0 -3 5 5 10 8 5 20 10 25 10 6 0 3 -5 -5 -10z"/>
<path d="M5128 4593 c7 -3 16 -2 19 1 4 3 -2 6 -13 5 -11 0 -14 -3 -6 -6z"/>
<path d="M5261 4584 c0 -11 3 -14 6 -6 3 7 2 16 -1 19 -3 4 -6 -2 -5 -13z"/>
<path d="M5545 4570 c-3 -5 -2 -10 4 -10 5 0 13 5 16 10 3 6 2 10 -4 10 -5 0
-13 -4 -16 -10z"/>
<path d="M5486 4538 c3 -4 0 -8 -6 -8 -6 0 -8 -5 -4 -11 5 -8 8 -8 14 0 4 7
12 11 17 9 6 -2 10 1 10 7 -1 5 -10 10 -19 10 -9 1 -15 -2 -12 -7z"/>
<path d="M5420 4475 c-13 -14 -21 -27 -18 -31 3 -3 16 9 28 25 26 37 22 40
-10 6z"/>
<path d="M5321 4434 c0 -11 3 -14 6 -6 3 7 2 16 -1 19 -3 4 -6 -2 -5 -13z"/>
<path d="M5446 4417 c-26 -11 -27 -14 -12 -26 14 -12 16 -12 11 1 -4 10 4 18
27 25 18 6 26 11 18 12 -8 0 -28 -5 -44 -12z"/>
<path d="M5505 4410 c-16 -7 -17 -9 -3 -9 9 -1 20 4 23 9 7 11 7 11 -20 0z"/>
<path d="M5270 4380 c0 -5 5 -10 11 -10 5 0 7 5 4 10 -3 6 -8 10 -11 10 -2 0
-4 -4 -4 -10z"/>
<path d="M6283 4370 c-17 -19 -39 -29 -29 -12 3 5 -1 9 -8 9 -8 0 -12 -6 -9
-14 3 -7 1 -13 -5 -13 -6 0 -19 -3 -29 -7 -16 -6 -16 -5 -4 10 15 19 1 23 -17
5 -9 -9 -13 -8 -17 4 -4 10 -14 14 -26 11 -10 -3 -16 -9 -13 -14 3 -5 -32 -9
-77 -9 -58 0 -87 -4 -99 -15 -14 -12 -21 -12 -55 0 -54 19 -73 18 -86 -4 -12
-18 -49 -18 -49 1 0 5 -10 6 -22 2 -42 -13 -97 -12 -102 2 -3 8 -11 14 -17 14
-18 0 19 -37 70 -71 24 -17 50 -28 57 -25 8 3 13 0 11 -6 -4 -20 92 -40 165
-34 66 6 189 44 238 74 120 74 172 112 151 112 -6 0 -19 -9 -28 -20z m-119
-36 c9 -24 7 -27 -9 -10 -17 17 -19 26 -6 26 5 0 12 -7 15 -16z m-483 -41 c13
-16 12 -17 -3 -4 -10 7 -18 15 -18 17 0 8 8 3 21 -13z"/>
<path d="M5410 4370 c-9 -6 -10 -10 -3 -10 6 0 15 5 18 10 8 12 4 12 -15 0z"/>
<path d="M3490 4341 c-30 -5 -81 -16 -113 -26 -64 -19 -177 -69 -138 -61 16 3
30 -1 38 -12 8 -9 12 -11 8 -4 -7 13 4 16 20 4 6 -4 10 -73 10 -171 l0 -164
25 -2 c14 -2 34 6 45 16 11 10 47 30 80 45 51 24 73 28 145 28 102 -1 167 -24
251 -88 l56 -43 108 130 108 131 -48 43 c-113 103 -284 171 -445 178 -52 2
-120 0 -150 -4z m-146 -57 c26 -10 18 -22 -11 -17 l-28 4 30 -15 c38 -18 12
-19 -35 -1 -27 10 -30 14 -13 14 12 1 25 6 28 11 7 12 8 12 29 4z m46 -308
c-7 -7 -13 -7 -20 0 -6 6 -3 10 10 10 13 0 16 -4 10 -10z"/>
<path d="M4905 4340 c-33 -5 -73 -13 -90 -19 l-30 -11 35 6 c75 13 85 14 53 4
-31 -10 -46 -30 -23 -30 14 0 12 -17 -3 -31 -8 -8 -11 -36 -9 -88 4 -114 12
-167 23 -150 5 8 9 10 9 4 0 -15 -12 -29 -44 -49 -22 -14 -26 -20 -15 -27 10
-6 11 -9 2 -9 -7 0 -13 -4 -13 -10 0 -5 20 3 44 18 33 21 40 28 27 33 -17 6
35 10 161 12 67 0 84 -3 142 -32 85 -42 137 -101 175 -201 42 -108 54 -200 48
-360 -8 -205 -55 -332 -157 -424 -69 -62 -121 -81 -217 -78 -109 2 -142 6
-137 13 2 3 -8 11 -22 18 -31 14 -34 14 -34 1 0 -5 7 -10 15 -10 8 0 15 -4 15
-10 0 -5 -7 -10 -15 -10 -8 0 -15 -4 -15 -10 0 -5 5 -10 10 -10 7 0 8 -7 3
-17 -5 -10 -7 -71 -5 -135 3 -111 4 -117 25 -122 12 -3 -2 -3 -32 -2 -35 2
-48 0 -38 -6 9 -4 36 -9 61 -10 26 -1 46 -6 46 -10 0 -12 -39 -9 -100 7 -59
16 -77 14 -33 -3 123 -49 350 -53 499 -10 379 112 579 463 553 973 -13 247
-97 454 -241 594 -137 131 -293 195 -500 204 -62 3 -140 2 -173 -3z m-55 -375
c-7 -8 -17 -15 -22 -15 -6 0 -5 7 2 15 7 8 17 15 22 15 6 0 5 -7 -2 -15z"/>
<path d="M5365 4340 c-3 -5 -2 -10 4 -10 5 0 13 5 16 10 3 6 2 10 -4 10 -5 0
-13 -4 -16 -10z"/>
<path d="M1963 4313 l-123 -4 0 -28 c0 -16 6 -32 13 -35 10 -5 10 -7 0 -12 -9
-4 -13 -31 -13 -85 0 -72 2 -79 20 -79 11 0 20 -4 20 -10 0 -5 -9 -10 -20 -10
-16 0 -20 -7 -20 -35 l0 -35 330 0 c182 0 333 0 338 0 4 0 8 76 10 170 l2 170
-217 -2 c-120 -1 -273 -4 -340 -5z"/>
<path d="M4730 4293 c-14 -7 -18 -13 -10 -13 17 0 47 17 40 23 -3 2 -16 -2
-30 -10z"/>
<path d="M4758 4233 c7 -3 16 -2 19 1 4 3 -2 6 -13 5 -11 0 -14 -3 -6 -6z"/>
<path d="M3080 4160 c-9 -6 -10 -10 -3 -10 6 0 15 5 18 10 8 12 4 12 -15 0z"/>
<path d="M1821 3974 c0 -11 3 -14 6 -6 3 7 2 16 -1 19 -3 4 -6 -2 -5 -13z"/>
<path d="M1822 3770 c-1 -81 3 -152 8 -160 8 -13 10 -12 10 3 0 9 5 17 11 17
6 0 9 -7 5 -15 -3 -8 0 -15 7 -15 9 0 9 -2 -1 -8 -16 -11 -30 -242 -15 -242 6
0 13 -9 16 -20 3 -13 0 -20 -9 -20 -8 0 -14 8 -14 17 0 11 -3 14 -10 7 -12
-12 -15 -423 -3 -435 4 -4 7 85 5 199 l-3 207 295 -3 296 -3 0 171 0 171 -295
-3 -294 -3 -4 140 -3 140 -2 -145z"/>
<path d="M3295 3868 l0 -40 27 33 c15 18 25 35 23 38 -3 2 -12 -4 -19 -15 -8
-10 -18 -16 -22 -11 -4 4 -2 7 4 7 16 0 15 17 -1 23 -9 3 -12 -7 -12 -35z"/>
<path d="M4755 3883 c-14 -15 -25 -32 -25 -37 0 -6 3 -6 8 0 4 5 18 21 31 37
32 35 20 35 -14 0z"/>
<path d="M3253 3808 c-1 -13 -4 -36 -8 -53 -6 -29 -6 -29 10 4 8 19 21 41 28
50 9 12 9 13 0 7 -7 -4 -13 -2 -13 3 0 21 -15 11 -17 -11z"/>
<path d="M4697 3791 c-4 -17 -3 -21 5 -13 5 5 8 16 6 23 -3 8 -7 3 -11 -10z"/>
<path d="M3211 3694 c0 -11 3 -14 6 -6 3 7 2 16 -1 19 -3 4 -6 -2 -5 -13z"/>
<path d="M3201 3264 c0 -11 3 -14 6 -6 3 7 2 16 -1 19 -3 4 -6 -2 -5 -13z"/>
<path d="M3221 3184 c0 -11 3 -14 6 -6 3 7 2 16 -1 19 -3 4 -6 -2 -5 -13z"/>
<path d="M3246 3120 c3 -19 15 -43 25 -53 11 -10 16 -23 13 -29 -4 -6 -3 -8 3
-5 6 4 14 0 17 -9 4 -11 2 -15 -7 -11 -8 3 -12 -6 -13 -29 l0 -33 28 15 c15 8
28 17 28 19 0 3 -16 27 -35 53 -19 27 -42 64 -50 83 l-16 34 7 -35z m66 -142
c-6 -6 -15 -8 -19 -4 -4 4 -1 11 7 16 19 12 27 3 12 -12z"/>
<path d="M4720 3071 c0 -6 4 -13 10 -16 6 -3 7 1 4 9 -7 18 -14 21 -14 7z"/>
<path d="M3887 3005 c-134 -123 -344 -149 -478 -59 -56 37 -64 40 -75 22 -5
-8 -2 -9 10 -5 10 4 15 3 11 -3 -4 -6 -14 -9 -23 -8 -15 3 -17 -13 -17 -165
l0 -168 -22 4 c-13 2 -20 0 -16 -6 3 -5 -4 -7 -18 -3 -64 18 16 -16 97 -40 80
-25 104 -28 239 -28 134 0 158 3 227 26 107 36 200 90 274 162 l64 61 -106
125 c-59 69 -109 126 -113 127 -3 1 -28 -18 -54 -42z m-482 -85 c3 -5 1 -10
-4 -10 -6 0 -11 5 -11 10 0 6 2 10 4 10 3 0 8 -4 11 -10z m-25 -20 c0 -5 -2
-10 -4 -10 -3 0 -8 5 -11 10 -3 6 -1 10 4 10 6 0 11 -4 11 -10z m-53 -296 c-3
-3 -12 -4 -19 -1 -8 3 -5 6 6 6 11 1 17 -2 13 -5z m38 -14 c3 -6 -1 -7 -9 -4
-18 7 -21 14 -7 14 6 0 13 -4 16 -10z"/>
<path d="M4755 3013 c8 -18 18 -33 20 -33 10 0 4 16 -16 40 l-20 25 16 -32z"/>
<path d="M4797 2969 c7 -9 10 -19 6 -23 -4 -4 1 -4 10 0 10 3 17 7 15 8 -2 1
-12 8 -23 16 -18 14 -19 13 -8 -1z"/>
<path d="M1792 2925 c0 -16 2 -22 5 -12 2 9 2 23 0 30 -3 6 -5 -1 -5 -18z"/>
<path d="M1883 2913 c-32 -6 -29 -31 5 -36 16 -2 10 -4 -13 -3 l-40 1 3 -125
c2 -82 7 -127 15 -132 9 -6 9 -8 0 -8 -7 0 -13 -6 -13 -14 0 -9 -13 -16 -32
-19 -18 -2 141 -5 355 -5 l387 -2 0 175 0 175 -322 -1 c-178 -1 -333 -4 -345
-6z"/>
<path d="M3241 2269 c-112 -9 -130 -13 -119 -25 34 -34 1058 -31 1111 3 7 5
-7 11 -38 15 -78 12 -827 18 -954 7z"/>
<path d="M3623 63 c15 -2 39 -2 55 0 15 2 2 4 -28 4 -30 0 -43 -2 -27 -4z"/>
</g>
</svg>
