<svg width="89" height="32" viewBox="0 0 89 32" fill="none" xmlns="http://www.w3.org/2000/svg">
<path d="M11.5043 4.83826H2.74643C2.59234 4.83826 2.46392 4.88982 2.33551 5.01874C2.23278 5.12187 2.15573 5.27657 2.15573 5.43127V12.4701C2.15573 12.6248 2.20709 12.7537 2.33551 12.8827C2.43824 12.9858 2.59234 13.0631 2.74643 13.0631H11.5043V14.2492H2.74643C2.25846 14.2492 1.84753 14.0687 1.51366 13.7335C1.17978 13.3983 1 12.9858 1 12.4959V5.40549C1 4.91561 1.17978 4.50307 1.51366 4.16789C1.84753 3.83271 2.25846 3.65222 2.74643 3.65222H11.5043V4.83826Z" fill="white" stroke="white" stroke-width="0.24" stroke-miterlimit="10"/>
<path d="M27.9413 3.65247V4.8385H19.5173V8.34504H26.2976V9.55685H19.5173V13.0634H27.9413V14.2494H18.3359V3.67825H27.9413V3.65247Z" fill="white" stroke="white" stroke-width="0.24" stroke-miterlimit="10"/>
<path d="M45.3029 5.40573V8.49974C45.3029 8.98962 45.1231 9.40215 44.7893 9.73734C44.4554 10.0725 44.0445 10.253 43.5565 10.253H41.9385L45.2516 14.1979H43.6849L40.3718 10.2788H36.5194C36.4423 10.2788 36.2369 10.253 35.9544 10.2272V14.2236H34.7729V3.65247H43.5565C44.0445 3.65247 44.4554 3.83295 44.7893 4.16813C45.1231 4.50332 45.3029 4.91585 45.3029 5.40573ZM36.5194 9.06697H43.5308C43.6849 9.06697 43.8133 9.0154 43.916 8.91227C44.0188 8.80914 44.0701 8.68022 44.0701 8.52552V5.43152C44.0701 5.27682 44.0188 5.1479 43.916 5.01898C43.8133 4.91585 43.6849 4.8385 43.5308 4.8385H36.5194C36.3653 4.8385 36.2369 4.89007 36.1085 5.01898C36.0057 5.12212 35.9287 5.27682 35.9287 5.43152V8.52552C35.9287 8.68022 35.98 8.80914 36.1085 8.91227C36.2112 9.0154 36.3653 9.06697 36.5194 9.06697Z" fill="white" stroke="white" stroke-width="0.24" stroke-miterlimit="10"/>
<path d="M51.5952 3.65247H62.1252V4.8385H57.4509V14.2236H56.2695V4.8385H51.5952V3.65247Z" fill="white" stroke="white" stroke-width="0.24" stroke-miterlimit="10"/>
<path d="M68.4946 14.2236V3.65247H69.676V14.2236H68.4946Z" fill="white" stroke="white" stroke-width="0.24" stroke-miterlimit="10"/>
<path d="M85.4966 3.65247H87.0119L82.6201 8.93805L87.0376 14.2236H85.4966L81.5671 9.53107H78.177V14.2236H76.9699V3.65247H78.177V8.34504H81.5671L85.4966 3.65247Z" fill="white" stroke="white" stroke-width="0.24" stroke-miterlimit="10"/>
<path d="M1 25.2987L32.6733 25.2987" stroke="white" stroke-width="0.8"/>
<path d="M45.3586 23.6044H45.4602V23.5027V23.2656C45.4602 22.9556 45.3472 22.6893 45.1238 22.4727C44.9007 22.2561 44.6277 22.1475 44.311 22.1475H40.1208C39.8041 22.1475 39.5312 22.2561 39.308 22.4727C39.0847 22.6893 38.9716 22.9556 38.9716 23.2656V24.6292C38.9716 24.9392 39.0847 25.2055 39.308 25.4222C39.5312 25.6387 39.8041 25.7473 40.1208 25.7473H44.311C44.379 25.7473 44.4318 25.7689 44.476 25.8118L44.4759 25.8119L44.4792 25.8148C44.5282 25.8584 44.5499 25.9073 44.5499 25.9675V27.3312C44.5499 27.3918 44.5278 27.4452 44.476 27.4954C44.4318 27.5383 44.379 27.5599 44.311 27.5599H40.1208C40.0542 27.5599 39.9977 27.539 39.9472 27.4953C39.9025 27.4467 39.882 27.3933 39.882 27.3312V27.0941V26.9924H39.7803H39.0732H38.9716V27.0941V27.3312C38.9716 27.6412 39.0847 27.9075 39.308 28.1241C39.5312 28.3407 39.8041 28.4493 40.1208 28.4493H44.311C44.6277 28.4493 44.9007 28.3407 45.1238 28.1241C45.3472 27.9075 45.4602 27.6412 45.4602 27.3312V25.9675C45.4602 25.6575 45.3472 25.3913 45.1238 25.1746C44.9007 24.9581 44.6277 24.8495 44.311 24.8495H40.1208C40.0534 24.8495 39.9965 24.8281 39.9456 24.7835C39.9026 24.7411 39.882 24.6918 39.882 24.6292V23.2656C39.882 23.2023 39.9031 23.1525 39.9472 23.1098C39.999 23.0595 40.0554 23.0369 40.1208 23.0369H44.311C44.3762 23.0369 44.428 23.0592 44.4729 23.1067L44.4726 23.1069L44.4792 23.1128C44.5282 23.1564 44.5499 23.2054 44.5499 23.2656V23.5027V23.6044H44.6515H45.3586ZM52.6172 22.1475H52.5707L52.5403 22.1826L50.2312 24.8495H48.354V22.2491V22.1475H48.2523H47.5365H47.4348V22.2491V28.3476V28.4493H47.5365H48.2523H48.354V28.3476V25.7473H50.2312L52.5403 28.4142L52.5707 28.4493H52.6172H53.5338H53.756L53.6107 28.2812L51.0317 25.2983L53.602 22.3155L53.7468 22.1475H53.525H52.6172ZM61.3685 22.1475H61.3199L61.2894 22.1853L58.9587 25.0694L56.6022 22.1848L56.5717 22.1475H56.5235H55.7117H55.5068L55.6307 22.3106L58.4995 26.0865V28.3476V28.4493H58.6012H59.3083H59.4099V28.3476V26.0865L62.2787 22.3106L62.4027 22.1475H62.1978H61.3685ZM69.954 22.1475H69.8523V22.2491V27.2959L65.4215 22.1826L65.3911 22.1475H65.3447H64.3757H64.274V22.2491V28.3476V28.4493H64.3757H65.0828H65.1844V28.3476V23.3009L69.6152 28.4142L69.6456 28.4493H69.6921H70.6611H70.7627V28.3476V22.2491V22.1475H70.6611H69.954ZM78.676 22.2491V22.1475H78.5743H72.8389H72.7373V22.2491V28.3476V28.4493H72.8389H78.5743H78.676V28.3476V27.6616V27.5599H78.5743H73.6477V25.7473H77.5879H77.6895V25.6457V24.9511V24.8495H77.5879H73.6477V23.0369H78.5743H78.676V22.9352V22.2491ZM80.7522 22.1475H80.6506V22.2491V22.9352V23.0369H80.7522H83.4441V28.3476V28.4493H83.5457H84.2528H84.3545V28.3476V23.0369H87.0376H87.1392V22.9352V22.2491V22.1475H87.0376H80.7522Z" fill="white" stroke="white" stroke-width="0.203283"/>
</svg>
